<svg width="868" height="798" viewBox="0 0 868 798" fill="none" xmlns="http://www.w3.org/2000/svg">
<g filter="url(#filter0_df_22_38)">
<path d="M807.931 344.44C807.931 516.78 640.596 656.489 434.178 656.489C411.641 656.489 389.57 654.823 368.131 651.632C341.061 647.602 313.261 655.195 291.384 671.639C283.05 677.904 273.785 684.205 264.344 689.398C233.663 706.275 200.553 710.554 195 705.265C189.446 699.976 206.165 687.047 221.445 667.067C223.943 663.8 226.378 660.232 228.705 656.55C242.412 634.854 231.242 607.508 209.518 593.845C118.97 536.899 60.4253 446.378 60.4253 344.44C60.4253 172.101 227.76 32.3919 434.178 32.3919C640.596 32.3919 807.931 172.101 807.931 344.44Z" fill="#0E4578"/>
</g>
<path d="M830.356 330.771C830.356 513.451 652.981 661.543 434.178 661.543C407.08 661.543 380.618 659.271 355.049 654.944C332.09 651.059 308.354 657.465 290.123 671.952C279.577 680.332 267.018 689.35 254.154 696.426C221.632 714.316 186.536 718.852 180.649 713.245C174.762 707.639 192.485 693.935 208.681 672.755C213.161 666.896 217.451 660.125 221.313 653.396C232.181 634.457 222.961 611.324 204.206 600.142C103.592 540.159 38 441.86 38 330.771C38 148.091 215.375 0 434.178 0C652.981 0 830.356 148.091 830.356 330.771Z" fill="#C3E3FF"/>
<g filter="url(#filter1_i_22_38)">
<path d="M830.356 330.771C830.356 513.451 652.981 661.543 434.178 661.543C363.043 661.543 296.287 645.89 238.581 618.485C118.79 561.595 38 454.06 38 330.771C38 148.091 215.375 0 434.178 0C652.981 0 830.356 148.091 830.356 330.771Z" fill="#E4F4FF"/>
<path d="M830.356 330.771C830.356 513.451 652.981 661.543 434.178 661.543C363.043 661.543 296.287 645.89 238.581 618.485C118.79 561.595 38 454.06 38 330.771C38 148.091 215.375 0 434.178 0C652.981 0 830.356 148.091 830.356 330.771Z" fill="url(#paint0_radial_22_38)"/>
<path d="M830.356 330.771C830.356 513.451 652.981 661.543 434.178 661.543C363.043 661.543 296.287 645.89 238.581 618.485C118.79 561.595 38 454.06 38 330.771C38 148.091 215.375 0 434.178 0C652.981 0 830.356 148.091 830.356 330.771Z" fill="url(#paint1_radial_22_38)"/>
<path d="M830.356 330.771C830.356 513.451 652.981 661.543 434.178 661.543C363.043 661.543 296.287 645.89 238.581 618.485C118.79 561.595 38 454.06 38 330.771C38 148.091 215.375 0 434.178 0C652.981 0 830.356 148.091 830.356 330.771Z" fill="url(#paint2_radial_22_38)"/>
<path d="M830.356 330.771C830.356 513.451 652.981 661.543 434.178 661.543C363.043 661.543 296.287 645.89 238.581 618.485C118.79 561.595 38 454.06 38 330.771C38 148.091 215.375 0 434.178 0C652.981 0 830.356 148.091 830.356 330.771Z" fill="url(#paint3_radial_22_38)" fill-opacity="0.1"/>
</g>
<mask id="mask0_22_38" style="mask-type:alpha" maskUnits="userSpaceOnUse" x="38" y="0" width="793" height="716">
<path d="M830.356 330.771C830.356 513.451 652.981 661.543 434.178 661.543C410.289 661.543 386.893 659.777 364.168 656.394C335.474 652.123 306.006 660.171 282.816 677.602C273.983 684.243 264.161 690.922 254.154 696.426C221.632 714.316 186.536 718.852 180.649 713.245C174.762 707.639 192.485 693.935 208.681 672.755C211.329 669.292 213.91 665.511 216.376 661.608C230.906 638.609 219.066 609.623 196.038 595.141C100.057 534.778 38 438.825 38 330.771C38 148.091 215.375 0 434.178 0C652.981 0 830.356 148.091 830.356 330.771Z" fill="white"/>
</mask>
<g mask="url(#mask0_22_38)">
<g filter="url(#filter2_f_22_38)">
<path d="M265.645 593.231C293.053 643.067 207.091 726.537 172.209 707.225C137.327 687.914 150.698 628.736 165.356 603.82C180.014 578.903 238.238 543.396 265.645 593.231Z" fill="url(#paint4_radial_22_38)"/>
</g>
<g filter="url(#filter3_f_22_38)">
<path d="M171.292 707.672C205.831 739.744 328.191 668.393 310.904 603.419C300.505 564.332 256.587 548.968 271.783 603.419C285.789 653.608 207.569 726.667 174.701 708.471C171.473 706.683 168.658 704.555 166.219 702.144C167.719 704.074 169.406 705.92 171.292 707.672Z" fill="url(#paint5_linear_22_38)" fill-opacity="0.9"/>
</g>
</g>
<g filter="url(#filter4_dd_22_38)">
<path d="M212.678 222.057C212.678 201.07 229.691 184.057 250.678 184.057H477.181C530.2 184.057 573.181 227.038 573.181 280.057V426.348C573.181 447.335 556.168 464.348 535.181 464.348H308.678C255.659 464.348 212.678 421.367 212.678 368.348V222.057Z" fill="url(#paint6_linear_22_38)"/>
</g>
<g filter="url(#filter5_ddd_22_38)">
<path d="M594.811 283.292C594.811 271.634 599.827 260.541 608.58 252.841L677.265 192.419C691.82 179.614 714.678 189.95 714.678 209.336V439.756C714.678 458.96 692.193 469.361 677.558 456.927L614.509 403.359C602.013 392.742 594.811 377.173 594.811 360.775V283.292Z" fill="url(#paint7_linear_22_38)"/>
</g>
<defs>
<filter id="filter0_df_22_38" x="0.425293" y="2.39191" width="867.506" height="795.006" filterUnits="userSpaceOnUse" color-interpolation-filters="sRGB">
<feFlood flood-opacity="0" result="BackgroundImageFix"/>
<feColorMatrix in="SourceAlpha" type="matrix" values="0 0 0 0 0 0 0 0 0 0 0 0 0 0 0 0 0 0 127 0" result="hardAlpha"/>
<feOffset dy="30"/>
<feGaussianBlur stdDeviation="30"/>
<feColorMatrix type="matrix" values="0 0 0 0 0.0832639 0 0 0 0 0.273131 0 0 0 0 0.454167 0 0 0 0.8 0"/>
<feBlend mode="normal" in2="BackgroundImageFix" result="effect1_dropShadow_22_38"/>
<feBlend mode="normal" in="SourceGraphic" in2="effect1_dropShadow_22_38" result="shape"/>
<feGaussianBlur stdDeviation="10" result="effect2_foregroundBlur_22_38"/>
</filter>
<filter id="filter1_i_22_38" x="38" y="-44" width="792.356" height="705.543" filterUnits="userSpaceOnUse" color-interpolation-filters="sRGB">
<feFlood flood-opacity="0" result="BackgroundImageFix"/>
<feBlend mode="normal" in="SourceGraphic" in2="BackgroundImageFix" result="shape"/>
<feColorMatrix in="SourceAlpha" type="matrix" values="0 0 0 0 0 0 0 0 0 0 0 0 0 0 0 0 0 0 127 0" result="hardAlpha"/>
<feOffset dy="-60"/>
<feGaussianBlur stdDeviation="22"/>
<feComposite in2="hardAlpha" operator="arithmetic" k2="-1" k3="1"/>
<feColorMatrix type="matrix" values="0 0 0 0 0.764706 0 0 0 0 0.890196 0 0 0 0 1 0 0 0 1 0"/>
<feBlend mode="normal" in2="shape" result="effect1_innerShadow_22_38"/>
</filter>
<filter id="filter2_f_22_38" x="147.126" y="565.104" width="126.826" height="147.967" filterUnits="userSpaceOnUse" color-interpolation-filters="sRGB">
<feFlood flood-opacity="0" result="BackgroundImageFix"/>
<feBlend mode="normal" in="SourceGraphic" in2="BackgroundImageFix" result="shape"/>
<feGaussianBlur stdDeviation="1.5" result="effect1_foregroundBlur_22_38"/>
</filter>
<filter id="filter3_f_22_38" x="152.219" y="554.109" width="174.348" height="175.492" filterUnits="userSpaceOnUse" color-interpolation-filters="sRGB">
<feFlood flood-opacity="0" result="BackgroundImageFix"/>
<feBlend mode="normal" in="SourceGraphic" in2="BackgroundImageFix" result="shape"/>
<feGaussianBlur stdDeviation="7" result="effect1_foregroundBlur_22_38"/>
</filter>
<filter id="filter4_dd_22_38" x="140.678" y="157.057" width="504.503" height="424.291" filterUnits="userSpaceOnUse" color-interpolation-filters="sRGB">
<feFlood flood-opacity="0" result="BackgroundImageFix"/>
<feColorMatrix in="SourceAlpha" type="matrix" values="0 0 0 0 0 0 0 0 0 0 0 0 0 0 0 0 0 0 127 0" result="hardAlpha"/>
<feOffset dy="10.9343"/>
<feGaussianBlur stdDeviation="11.005"/>
<feColorMatrix type="matrix" values="0 0 0 0 0.0509804 0 0 0 0 0.121569 0 0 0 0 0.396078 0 0 0 0.3 0"/>
<feBlend mode="multiply" in2="BackgroundImageFix" result="effect1_dropShadow_22_38"/>
<feColorMatrix in="SourceAlpha" type="matrix" values="0 0 0 0 0 0 0 0 0 0 0 0 0 0 0 0 0 0 127 0" result="hardAlpha"/>
<feOffset dy="45"/>
<feGaussianBlur stdDeviation="36"/>
<feColorMatrix type="matrix" values="0 0 0 0 0.0509804 0 0 0 0 0.121569 0 0 0 0 0.396078 0 0 0 0.45 0"/>
<feBlend mode="multiply" in2="effect1_dropShadow_22_38" result="effect2_dropShadow_22_38"/>
<feBlend mode="normal" in="SourceGraphic" in2="effect2_dropShadow_22_38" result="shape"/>
</filter>
<filter id="filter5_ddd_22_38" x="522.811" y="159.761" width="263.867" height="419.57" filterUnits="userSpaceOnUse" color-interpolation-filters="sRGB">
<feFlood flood-opacity="0" result="BackgroundImageFix"/>
<feColorMatrix in="SourceAlpha" type="matrix" values="0 0 0 0 0 0 0 0 0 0 0 0 0 0 0 0 0 0 127 0" result="hardAlpha"/>
<feOffset dy="10.9343"/>
<feGaussianBlur stdDeviation="11.005"/>
<feColorMatrix type="matrix" values="0 0 0 0 0.0509804 0 0 0 0 0.121569 0 0 0 0 0.396078 0 0 0 0.3 0"/>
<feBlend mode="multiply" in2="BackgroundImageFix" result="effect1_dropShadow_22_38"/>
<feColorMatrix in="SourceAlpha" type="matrix" values="0 0 0 0 0 0 0 0 0 0 0 0 0 0 0 0 0 0 127 0" result="hardAlpha"/>
<feOffset dy="17.0142"/>
<feGaussianBlur stdDeviation="20.46"/>
<feColorMatrix type="matrix" values="0 0 0 0 0.0509804 0 0 0 0 0.121569 0 0 0 0 0.396078 0 0 0 0.29 0"/>
<feBlend mode="overlay" in2="effect1_dropShadow_22_38" result="effect2_dropShadow_22_38"/>
<feColorMatrix in="SourceAlpha" type="matrix" values="0 0 0 0 0 0 0 0 0 0 0 0 0 0 0 0 0 0 127 0" result="hardAlpha"/>
<feOffset dy="45"/>
<feGaussianBlur stdDeviation="36"/>
<feColorMatrix type="matrix" values="0 0 0 0 0.0509804 0 0 0 0 0.121569 0 0 0 0 0.396078 0 0 0 0.45 0"/>
<feBlend mode="multiply" in2="effect2_dropShadow_22_38" result="effect3_dropShadow_22_38"/>
<feBlend mode="normal" in="SourceGraphic" in2="effect3_dropShadow_22_38" result="shape"/>
</filter>
<radialGradient id="paint0_radial_22_38" cx="0" cy="0" r="1" gradientUnits="userSpaceOnUse" gradientTransform="translate(434.178 479.946) rotate(-90) scale(412.696 766.047)">
<stop stop-color="#9DD0F9"/>
<stop offset="0.177083" stop-color="#9DD0F9" stop-opacity="0.822917"/>
<stop offset="1" stop-color="#9DD0F9" stop-opacity="0"/>
</radialGradient>
<radialGradient id="paint1_radial_22_38" cx="0" cy="0" r="1" gradientUnits="userSpaceOnUse" gradientTransform="translate(434.178 158.855) rotate(83.5006) scale(352.205 427.237)">
<stop offset="0.53925" stop-color="#94D1FF" stop-opacity="0.13"/>
<stop offset="1" stop-color="#94D1FF"/>
</radialGradient>
<radialGradient id="paint2_radial_22_38" cx="0" cy="0" r="1" gradientUnits="userSpaceOnUse" gradientTransform="translate(158.224 221.867) rotate(-6.71436) scale(676.774 526.017)">
<stop stop-color="white"/>
<stop offset="1" stop-color="white" stop-opacity="0"/>
</radialGradient>
<radialGradient id="paint3_radial_22_38" cx="0" cy="0" r="1" gradientUnits="userSpaceOnUse" gradientTransform="translate(419.228 329.758) rotate(-92.729) scale(313.999 377.119)">
<stop stop-color="#E3F8FF" stop-opacity="0"/>
<stop offset="1" stop-color="#E3F8FF"/>
</radialGradient>
<radialGradient id="paint4_radial_22_38" cx="0" cy="0" r="1" gradientUnits="userSpaceOnUse" gradientTransform="translate(195.599 679.194) rotate(-62.4142) scale(125.102 67.2591)">
<stop stop-color="white"/>
<stop offset="0.890251" stop-color="white" stop-opacity="0"/>
</radialGradient>
<linearGradient id="paint5_linear_22_38" x1="140.159" y1="801.078" x2="312.085" y2="596.759" gradientUnits="userSpaceOnUse">
<stop stop-color="#55C4FA"/>
<stop offset="0.890251" stop-color="#90C9FD" stop-opacity="0"/>
</linearGradient>
<linearGradient id="paint6_linear_22_38" x1="392.93" y1="184.057" x2="392.93" y2="464.348" gradientUnits="userSpaceOnUse">
<stop stop-color="#55C4FA"/>
<stop offset="0.9999" stop-color="#0A80F8"/>
<stop offset="1" stop-color="#C5D4F7"/>
</linearGradient>
<linearGradient id="paint7_linear_22_38" x1="654.745" y1="186.761" x2="654.745" y2="462.331" gradientUnits="userSpaceOnUse">
<stop stop-color="#55C4FA"/>
<stop offset="0.9999" stop-color="#0A80F8"/>
<stop offset="1" stop-color="#C5D4F7"/>
</linearGradient>
</defs>
</svg>
